<?xml version="1.0" standalone="no"?><!DOCTYPE svg PUBLIC "-//W3C//DTD SVG 1.1//EN" "http://www.w3.org/Graphics/SVG/1.1/DTD/svg11.dtd"><svg t="1622787673242" class="icon" viewBox="0 0 1024 1024" version="1.1" xmlns="http://www.w3.org/2000/svg" p-id="16163" xmlns:xlink="http://www.w3.org/1999/xlink" width="128" height="128"><defs><style type="text/css"></style></defs><path d="M177.732267 147.797333c-1.604267 1.7408-3.2768 3.413333-4.881067 5.2224C91.7504 243.882667 51.2 367.274667 51.2 523.264c0 150.801067 39.424 268.356267 118.0672 352.938667h662.698667c87.1424-39.3216 140.868267-117.077333 140.868266-117.077334l-107.4176-86.016L815.786667 720.213333c-29.5936 26.385067-28.842667 31.778133-79.018667 60.757334-51.029333 23.005867-103.765333 32.9728-158.173867 32.9728-85.845333 0-150.971733-31.0272-195.345066-70.280534-43.895467-39.253333-67.754667-153.975467-71.543467-228.010666l595.899733 2.286933-6.2464-50.244267s-28.910933-243.336533-86.7328-319.8976z m299.008 28.8768c53.418667 0 109.909333 18.261333 135.202133 50.210134 25.258667 31.982933 31.778133 56.900267 33.211733 120.285866H310.954667c3.822933-66.730667 14.882133-95.914667 46.865066-126.225066 31.9488-30.276267 69.290667-44.270933 118.920534-44.270934z" fill="#F44336" p-id="16164"></path></svg>